PathFileType	4	(X/Y/Z)	s05c0302.trc
DataRate	CameraRate	NumFrames	NumMarkers	Units	OrigDataRate	OrigDataStartFrame	OrigNumFrames
200	200	5	49	mm	200	250	2000
Frame#	Time	racr			lacr			c7			jug			rlel			rdr			llel			ldr			s2			lic			ric			lasi			rasi			rpsi			lpsi			rgt			lgt			rth1			rth2			rth3			rth4			rlfc			rsh1			rsh2			rsh3			rsh4			rlmal			rmmal			rcal			rtoe			rmt5			lth1			lth2			lth4			lth3			llfc			lmfc			lsh1			lsh2			lsh3			lsh4			llmal			lmmal			lcal			ltoe			lmt5			SBIKE			LBIKE			RBIKE			
		X1	Y1	Z1	X2	Y2	Z2	X3	Y3	Z3	X4	Y4	Z4	X5	Y5	Z5	X6	Y6	Z6	X7	Y7	Z7	X8	Y8	Z8	X9	Y9	Z9	X10	Y10	Z10	X11	Y11	Z11	X12	Y12	Z12	X13	Y13	Z13	X14	Y14	Z14	X15	Y15	Z15	X16	Y16	Z16	X17	Y17	Z17	X18	Y18	Z18	X19	Y19	Z19	X20	Y20	Z20	X21	Y21	Z21	X22	Y22	Z22	X23	Y23	Z23	X24	Y24	Z24	X25	Y25	Z25	X26	Y26	Z26	X27	Y27	Z27	X28	Y28	Z28	X29	Y29	Z29	X30	Y30	Z30	X31	Y31	Z31	X32	Y32	Z32	X33	Y33	Z33	X34	Y34	Z34	X35	Y35	Z35	X36	Y36	Z36	X37	Y37	Z37	X38	Y38	Z38	X39	Y39	Z39	X40	Y40	Z40	X41	Y41	Z41	X42	Y42	Z42	X43	Y43	Z43	X44	Y44	Z44	X45	Y45	Z45	X46	Y46	Z46	X47	Y47	Z47	X48	Y48	Z48	X49	Y49	Z49	
250	1.2500	447.906061	1360.533465	-136.652824	460.515932	1367.793858	-407.897293	428.919383	1437.301912	-280.118791	404.409768	1282.933885	-273.423707	490.245382	1104.217192	-30.858945	683.281446	936.883147	-84.266114	477.397944	1103.973089	-542.952381	674.899739	922.614737	-479.976551	-104.272780	1177.125582	-292.609057	53.120698	1179.499230	-432.179611	38.641127	1202.134481	-149.489968	92.515568	1122.255899	-394.380181	85.890596	1140.490038	-172.589090	-71.318219	1223.978883	-256.915868	-64.253353	1223.201052	-341.595859	1.480716	1079.674602	-117.491573	-26.582553	1076.079824	-454.986142	95.386748	1001.941354	-103.491571	175.573010	963.059636	-102.683736	224.034338	890.034752	-106.371291	198.679328	990.256430	-113.194224	337.204661	785.099614	-131.462423	288.720421	685.165725	-101.770576	289.560057	596.906601	-113.296353	249.928036	521.195978	-114.584797	318.585756	592.808373	-139.191124	220.898554	388.739989	-120.041171	227.619564	419.541705	-199.823210	158.030307	335.794531	-163.436744	447.678782	398.639113	-157.181054	356.858020	347.163366	-91.782528	63.559107	965.069899	-476.726894	139.287141	924.085778	-478.059951	165.367737	948.072031	-465.600577	185.048845	846.253996	-482.353515	269.474776	719.964343	-452.199667	251.111730	716.006248	-341.723112	172.873496	637.062745	-471.928176	127.981778	563.742083	-453.734349	50.149186	520.980479	-451.399589	150.053646	546.618798	-427.578225	-32.656058	434.297708	-436.762413	4.281972	449.021224	-361.324439	-108.139826	424.321778	-390.002612	142.196073	268.134404	-401.771106	33.700801	297.215468	-460.740956	-175.753626	898.172971	-279.268765	-53.617386	78.785966	-474.949130	-53.665697	79.007441	-77.267569	
251	1.2550	450.579124	1360.522108	-136.762272	462.811608	1367.737258	-407.913784	431.586960	1437.258993	-280.342860	407.000455	1282.901284	-273.583081	490.441509	1103.824532	-30.349916	683.328795	936.954860	-84.028365	477.888183	1103.914711	-543.589342	674.811579	922.702006	-480.126179	-101.824354	1177.476894	-292.649199	55.399652	1179.906230	-432.237668	41.017557	1201.501444	-149.627241	94.738043	1122.539329	-394.748570	88.549085	1140.160465	-172.746390	-68.723922	1224.154651	-256.788003	-61.832664	1223.580865	-341.522130	3.895110	1079.292534	-117.827706	-24.236909	1077.142454	-455.312755	97.125824	1000.582575	-103.854721	176.678787	960.355672	-103.376649	223.993671	886.480806	-107.030056	200.153151	987.114223	-113.778908	336.007560	780.565830	-132.208769	287.948665	680.420687	-102.121105	289.296069	592.181342	-113.562377	250.015982	516.261357	-114.613662	318.173679	588.161778	-139.571954	221.628932	383.356762	-120.000433	228.486802	413.874619	-199.907686	158.909226	330.256245	-163.304248	448.498165	393.521863	-157.138994	357.682732	341.933720	-91.767752	66.572987	967.250010	-476.831381	142.561685	926.974210	-478.704203	168.434505	951.152657	-466.220500	189.057965	849.653844	-483.562807	274.498535	723.594527	-453.722277	257.339733	719.644483	-343.479169	177.251274	641.410040	-473.063299	131.775216	568.590869	-454.644162	53.557259	526.426862	-451.907628	153.775370	551.241896	-428.540894	-30.061335	440.799193	-437.073088	7.200811	454.842393	-361.711026	-105.966314	432.048912	-389.837184	141.703828	271.202688	-401.834285	33.791868	302.307409	-460.679633	-175.539416	898.172784	-279.219518	-53.610647	78.794232	-474.941404	-53.663097	79.015823	-77.256660	
252	1.2600	453.371526	1360.563893	-136.808832	465.237348	1367.677120	-408.108657	434.335692	1437.295340	-280.593192	409.672919	1282.850043	-273.719583	490.602128	1103.420301	-29.848711	683.385656	936.996317	-83.888369	478.168182	1103.796561	-544.222876	674.714487	922.751734	-480.291126	-99.114904	1177.929148	-292.650579	57.819031	1180.317973	-432.386476	44.121182	1201.337078	-149.314712	97.131596	1122.824006	-395.085002	91.419577	1139.830657	-172.992147	-65.993487	1224.208940	-256.651806	-59.261842	1224.022417	-341.460776	6.483168	1078.835444	-118.060588	-21.766665	1078.193777	-455.645587	98.915774	999.050227	-104.181930	177.867281	957.569946	-103.913762	223.986931	883.097889	-107.792197	201.810559	984.083144	-114.260847	334.970098	775.998244	-132.869848	287.494121	675.755436	-102.574718	289.009688	587.503573	-113.847779	250.136880	511.282551	-114.617418	317.886708	583.488965	-140.039845	222.245916	378.141008	-119.856230	228.738478	408.734407	-199.869119	159.479548	325.050357	-163.087436	449.201807	388.407267	-157.173947	358.418401	336.847547	-91.789353	69.541225	969.396233	-477.174905	145.903326	929.795245	-479.354534	171.546627	954.192762	-466.820072	193.118992	852.965770	-484.794493	279.476056	727.114661	-455.200513	262.459450	722.709201	-344.672455	181.833734	645.206223	-473.734363	135.679180	573.108642	-455.540704	56.990963	531.806897	-452.470419	157.287996	555.523173	-429.118863	-27.478820	447.181979	-437.407509	10.579194	460.536187	-362.414548	-102.950522	439.900623	-390.231660	141.284030	274.367016	-401.946541	33.955101	307.487949	-460.602971	-175.205182	898.215742	-279.116226	-53.613766	78.821662	-474.927604	-53.668793	79.048335	-77.248952	
253	1.2650	456.294891	1360.678671	-136.806266	467.770969	1367.595393	-408.460777	437.191452	1437.415888	-280.895383	412.446195	1282.744071	-273.919140	490.831173	1103.120839	-29.384495	683.476472	937.051084	-83.886914	478.274760	1103.544359	-544.967059	674.594525	922.762702	-480.510742	-96.360539	1178.238907	-292.625305	60.328961	1180.762963	-432.432460	46.786060	1200.727231	-149.462145	99.599630	1123.058766	-395.390854	94.457622	1139.421768	-173.127274	-63.217021	1224.494385	-256.053221	-56.486207	1224.240285	-341.433254	9.198943	1078.406635	-118.415614	-19.109752	1079.134240	-455.999923	100.882213	997.565884	-104.531383	179.188672	954.881880	-104.341605	224.172876	879.562545	-108.442147	203.490541	981.015003	-114.783624	334.035299	771.476332	-133.583878	286.893801	671.046367	-102.888956	288.858360	582.913750	-113.394855	250.327894	506.488389	-114.612714	317.572287	578.895568	-140.373145	222.712649	373.035304	-119.724140	229.300736	403.344541	-199.839673	159.990298	319.821959	-162.901826	449.700991	383.216453	-157.215052	358.952125	331.687431	-91.766253	72.582245	971.437875	-477.510736	149.292577	932.570738	-480.000770	174.764603	957.109864	-467.391223	197.198409	856.167588	-486.026241	284.397795	730.557849	-456.692035	267.382061	724.534254	-345.492244	186.511231	649.121297	-474.976093	139.658867	577.608853	-456.525164	60.521596	537.163449	-453.145976	161.229006	559.527122	-430.290503	-24.839982	453.378999	-437.863765	14.034972	466.230407	-363.237107	-100.321204	447.441577	-390.415212	141.044314	277.546331	-402.038827	34.236405	312.509749	-460.626857	-174.767927	898.360350	-278.812517	-53.609411	78.837596	-474.917328	-53.680423	79.040454	-77.239648	
254	1.2700	459.188899	1360.891331	-136.884531	470.255105	1367.588556	-408.867502	440.057466	1437.522706	-281.311388	415.340122	1282.731674	-274.093233	491.142313	1102.790977	-29.029785	683.557131	937.116656	-83.969556	478.223922	1103.247746	-545.630031	674.435237	922.712090	-480.774701	-93.426939	1178.558017	-292.604030	62.922633	1181.184848	-432.431656	50.202367	1200.445239	-149.076153	102.269540	1123.329644	-395.628511	97.575050	1138.839032	-173.382828	-60.274043	1224.394921	-255.664561	-53.690347	1224.648822	-341.356479	12.144815	1077.858101	-118.718967	-16.315509	1079.974257	-456.303139	103.080151	996.166397	-104.472858	180.642209	952.309465	-104.790038	224.518015	876.295817	-109.022579	205.337352	977.967854	-115.187684	333.305040	767.039593	-134.250932	286.416273	666.469118	-103.120313	288.621316	578.324600	-113.596373	250.396209	501.779316	-114.629833	317.245226	574.406793	-140.641352	223.093717	368.081132	-119.578624	229.370414	398.479709	-199.774763	160.355837	315.077805	-162.704590	450.245281	377.782079	-157.216420	359.418032	326.550298	-91.725567	75.733895	973.322221	-477.812602	152.759168	935.160736	-480.627850	178.028319	959.836289	-467.942867	201.274516	859.233487	-487.168210	289.372194	733.851484	-458.135334	273.550291	729.423771	-347.739143	191.372957	652.836925	-476.241241	143.686500	581.975851	-457.443007	64.119141	542.324272	-453.924874	164.913637	563.763324	-431.024709	-22.097307	459.554336	-438.358499	16.775356	472.116238	-363.775331	-97.548469	454.910192	-390.711277	140.847094	280.965717	-402.134365	34.648427	317.597353	-460.689814	-174.406759	898.375838	-278.774067	-53.596384	78.838073	-474.935003	-53.673584	79.241736	-77.106120	
